<svg width="18" class="li-before" style="enable-background:new 0 0 16 16;" version="1.1"
     viewBox="0 0 16 16" xml:space="preserve" xmlns="http://www.w3.org/2000/svg"
>
    <path d="M14.79,4.45l-1.11-1.1a.4.4,0,0,0-.59,0l-.21.22a.39.39,0,0,0,0,.58l.21.22-.31.3A6.56,6.56,0,0,0,8.57,2.59V1.77h.69a.45.45,0,0,0,.44-.45V.74A.45.45,0,0,0,9.26.29H6.64a.45.45,0,0,0-.45.45v.58a.45.45,0,0,0,.45.45h.69v.82a6.56,6.56,0,0,0-4,1.86L2.91,4l.21-.21a.4.4,0,0,0,0-.59L2.91,3a.4.4,0,0,0-.59,0L1.21,4.1a.42.42,0,0,0,0,.59l.22.22a.42.42,0,0,0,.59,0l.25-.25.48.48a6.57,6.57,0,1,0,10.61.24L13.73,5l.25.25a.42.42,0,0,0,.59,0L14.79,5A.42.42,0,0,0,14.79,4.45ZM8,14.65a5.52,5.52,0,1,1,5.52-5.52A5.52,5.52,0,0,1,8,14.65Z"
          transform="translate(-1.09 -0.29)"
          style="fill:#161616"/>
    <path d="M8,5.59h0V9.14H4.42A3.54,3.54,0,1,0,8,5.59Z" transform="translate(-1.09 -0.29)" style="fill:#727272"/>
</svg>
